# xmcd
# 
# Track frame offsets:
#     182
#     16270
#     29185
#     43730
#     56977
#     71975
#     86975
#     98815
#     113012
#     124932
#     138867
#     153957
#     169005
#     183660
#     198875
#     212825
#     227837
#     240567
#     252160
#     264877
# 
# Disc length: 3728
# 
# Revision: 1
# Processed by: cddbd v1.5.2PL0 Copyright (c) Steve Scherf et al.
# Submitted via: BonkEnc v1.0.0
# 
DISCID=210e8e14
DTITLE=al bowlly - the very thought of you
DYEAR=0
DGENRE=
TTITLE0=the very thought of you
TTITLE1=you're as pretty as a picture
TTITLE2=love locked out
TTITLE3=night and day
TTITLE4=by the fireside
TTITLE5=they say
TTITLE6=in my little red book
TTITLE7=colorado sunset
TTITLE8=waltzing in a dream
TTITLE9=did you ever see a dream walking
TTITLE10=love is the sweetest thing
TTITLE11=goodnight sweetheart
TTITLE12=time on my hands
TTITLE13=penny serenade
TTITLE14=summer's end
TTITLE15=isle of capri
TTITLE16=bei mir bist du schoen
TTITLE17=just an echo in the valley
TTITLE18=marie
TTITLE19=two sleepy people
EXTD=
EXTT0=
EXTT1=
EXTT2=
EXTT3=
EXTT4=
EXTT5=
EXTT6=
EXTT7=
EXTT8=
EXTT9=
EXTT10=
EXTT11=
EXTT12=
EXTT13=
EXTT14=
EXTT15=
EXTT16=
EXTT17=
EXTT18=
EXTT19=
PLAYORDER=
